HIERARCHY
ROOT Hips
{
	OFFSET -14.64140 90.27770 -84.91600
	CHANNELS 6 Xposition Yposition Zposition Zrotation Xrotation Yrotation
	JOINT Spine
	{
		OFFSET 0.00000 13.20850 -1.60436
		CHANNELS 3 Zrotation Xrotation Yrotation
		JOINT Spine1
		{
			OFFSET 0.00000 8.61716 0.00000
			CHANNELS 3 Zrotation Xrotation Yrotation
			JOINT Spine2
			{
				OFFSET 0.00000 8.61717 0.00000
				CHANNELS 3 Zrotation Xrotation Yrotation
				JOINT Spine3
				{
					OFFSET 0.00000 8.61717 0.00000
					CHANNELS 3 Zrotation Xrotation Yrotation
					JOINT Neck
					{
						OFFSET 0.00000 11.07920 1.10792
						CHANNELS 3 Zrotation Xrotation Yrotation
						JOINT Neck1
						{
							OFFSET 0.00000 7.08032 0.00000
							CHANNELS 3 Zrotation Xrotation Yrotation
							JOINT Head
							{
								OFFSET 0.00000 7.08031 0.00000
								CHANNELS 3 Zrotation Xrotation Yrotation
								End site
								{
									OFFSET 0.00000 0.00000 0.00000
								}
							}
						}
					}
					JOINT RightShoulder
					{
						OFFSET -0.01000 7.91373 5.19711
						CHANNELS 3 Zrotation Xrotation Yrotation
						JOINT RightArm
						{
							OFFSET -18.41580 0.00000 0.00000
							CHANNELS 3 Zrotation Xrotation Yrotation
							JOINT RightForeArm
							{
								OFFSET -29.11090 0.00000 0.00000
								CHANNELS 3 Zrotation Xrotation Yrotation
								JOINT RightHand
								{
									OFFSET -24.65040 0.00000 0.00000
									CHANNELS 3 Zrotation Xrotation Yrotation
									JOINT RightHandThumb1
									{
										OFFSET -5.35114 -0.85590 3.97906
										CHANNELS 3 Zrotation Xrotation Yrotation
										JOINT RightHandThumb2
										{
											OFFSET -4.52789 0.00000 0.00000
											CHANNELS 3 Zrotation Xrotation Yrotation
											JOINT RightHandThumb3
											{
												OFFSET -2.46976 0.00000 0.00000
												CHANNELS 3 Zrotation Xrotation Yrotation
												End site
												{
													OFFSET 0.00000 0.00000 0.00000
												}
											}
										}
									}
									JOINT RightHandIndex1
									{
										OFFSET -14.26970 0.00000 2.88139
										CHANNELS 3 Zrotation Xrotation Yrotation
										JOINT RightHandIndex2
										{
											OFFSET -5.48836 0.00000 0.00000
											CHANNELS 3 Zrotation Xrotation Yrotation
											JOINT RightHandIndex3
											{
												OFFSET -3.01859 0.00000 0.00000
												CHANNELS 3 Zrotation Xrotation Yrotation
												End site
												{
													OFFSET 0.00000 0.00000 0.00000
												}
											}
										}
									}
									JOINT RightHandMiddle1
									{
										OFFSET -14.26970 0.00000 -0.09147
										CHANNELS 3 Zrotation Xrotation Yrotation
										JOINT RightHandMiddle2
										{
											OFFSET -6.17441 0.00000 0.00000
											CHANNELS 3 Zrotation Xrotation Yrotation
											JOINT RightHandMiddle3
											{
												OFFSET -3.56743 0.00000 0.00000
												CHANNELS 3 Zrotation Xrotation Yrotation
												End site
												{
													OFFSET 0.00000 0.00000 0.00000
												}
											}
										}
									}
									JOINT RightHandRing1
									{
										OFFSET -12.69180 0.00000 -3.06433
										CHANNELS 3 Zrotation Xrotation Yrotation
										JOINT RightHandRing2
										{
											OFFSET -5.62556 0.00000 0.00000
											CHANNELS 3 Zrotation Xrotation Yrotation
											JOINT RightHandRing3
											{
												OFFSET -3.56744 0.00000 0.00000
												CHANNELS 3 Zrotation Xrotation Yrotation
												End site
												{
													OFFSET 0.00000 0.00000 0.00000
												}
											}
										}
									}
									JOINT RightHandPinky1
									{
										OFFSET -11.11390 0.00000 -6.03719
										CHANNELS 3 Zrotation Xrotation Yrotation
										JOINT RightHandPinky2
										{
											OFFSET -4.52789 0.00000 0.00000
											CHANNELS 3 Zrotation Xrotation Yrotation
											JOINT RightHandPinky3
											{
												OFFSET -2.46976 0.00000 0.00000
												CHANNELS 3 Zrotation Xrotation Yrotation
												End site
												{
													OFFSET 0.00000 0.00000 0.00000
												}
											}
										}
									}
								}
							}
						}
					}
					JOINT LeftShoulder
					{
						OFFSET 0.01000 7.91373 5.19711
						CHANNELS 3 Zrotation Xrotation Yrotation
						JOINT LeftArm
						{
							OFFSET 18.41580 0.00000 0.00000
							CHANNELS 3 Zrotation Xrotation Yrotation
							JOINT LeftForeArm
							{
								OFFSET 29.11090 0.00000 0.00000
								CHANNELS 3 Zrotation Xrotation Yrotation
								JOINT LeftHand
								{
									OFFSET 24.65040 0.00000 0.00000
									CHANNELS 3 Zrotation Xrotation Yrotation
									JOINT LeftHandThumb1
									{
										OFFSET 5.35114 -0.85590 3.97906
										CHANNELS 3 Zrotation Xrotation Yrotation
										JOINT LeftHandThumb2
										{
											OFFSET 4.52789 0.00000 0.00000
											CHANNELS 3 Zrotation Xrotation Yrotation
											JOINT LeftHandThumb3
											{
												OFFSET 2.46977 0.00000 0.00000
												CHANNELS 3 Zrotation Xrotation Yrotation
												End site
												{
													OFFSET 0.00000 0.00000 0.00000
												}
											}
										}
									}
									JOINT LeftHandIndex1
									{
										OFFSET 14.26970 0.00000 2.88139
										CHANNELS 3 Zrotation Xrotation Yrotation
										JOINT LeftHandIndex2
										{
											OFFSET 5.48836 0.00000 0.00000
											CHANNELS 3 Zrotation Xrotation Yrotation
											JOINT LeftHandIndex3
											{
												OFFSET 3.01859 0.00000 0.00000
												CHANNELS 3 Zrotation Xrotation Yrotation
												End site
												{
													OFFSET 0.00000 0.00000 0.00000
												}
											}
										}
									}
									JOINT LeftHandMiddle1
									{
										OFFSET 14.26970 0.00000 -0.09147
										CHANNELS 3 Zrotation Xrotation Yrotation
										JOINT LeftHandMiddle2
										{
											OFFSET 6.17440 0.00000 0.00000
											CHANNELS 3 Zrotation Xrotation Yrotation
											JOINT LeftHandMiddle3
											{
												OFFSET 3.56744 0.00000 0.00000
												CHANNELS 3 Zrotation Xrotation Yrotation
												End site
												{
													OFFSET 0.00000 0.00000 0.00000
												}
											}
										}
									}
									JOINT LeftHandRing1
									{
										OFFSET 12.69180 0.00000 -3.06433
										CHANNELS 3 Zrotation Xrotation Yrotation
										JOINT LeftHandRing2
										{
											OFFSET 5.62556 0.00000 0.00000
											CHANNELS 3 Zrotation Xrotation Yrotation
											JOINT LeftHandRing3
											{
												OFFSET 3.56744 0.00000 0.00000
												CHANNELS 3 Zrotation Xrotation Yrotation
												End site
												{
													OFFSET 0.00000 0.00000 0.00000
												}
											}
										}
									}
									JOINT LeftHandPinky1
									{
										OFFSET 11.11390 0.00000 -6.03719
										CHANNELS 3 Zrotation Xrotation Yrotation
										JOINT LeftHandPinky2
										{
											OFFSET 4.52789 0.00000 0.00000
											CHANNELS 3 Zrotation Xrotation Yrotation
											JOINT LeftHandPinky3
											{
												OFFSET 2.46976 0.00000 0.00000
												CHANNELS 3 Zrotation Xrotation Yrotation
												End site
												{
													OFFSET 0.00000 0.00000 0.00000
												}
											}
										}
									}
								}
							}
						}
					}
					JOINT pCube4
					{
						OFFSET 0.00000 10.91090 1.10792
						CHANNELS 3 Zrotation Xrotation Yrotation
						End site
						{
							OFFSET 0.00000 0.00000 0.00000
						}
					}
				}
			}
		}
	}
	JOINT RightUpLeg
	{
		OFFSET -9.98441 0.00000 0.00000
		CHANNELS 3 Zrotation Xrotation Yrotation
		JOINT RightLeg
		{
			OFFSET 0.00000 -42.11790 0.00000
			CHANNELS 3 Zrotation Xrotation Yrotation
			JOINT RightFoot
			{
				OFFSET 0.00000 -45.00020 -0.00001
				CHANNELS 3 Zrotation Xrotation Yrotation
				JOINT RightForeFoot
				{
					OFFSET 0.00000 -3.74820 0.00000
					CHANNELS 3 Zrotation Xrotation Yrotation
					JOINT RightToeBase
					{
						OFFSET 0.00000 0.06325 14.43120
						CHANNELS 3 Zrotation Xrotation Yrotation
						End site
						{
							OFFSET 0.00000 0.00000 0.00000
						}
					}
				}
			}
		}
	}
	JOINT LeftUpLeg
	{
		OFFSET 9.98441 0.00000 0.00000
		CHANNELS 3 Zrotation Xrotation Yrotation
		JOINT LeftLeg
		{
			OFFSET 0.00000 -42.11800 0.00000
			CHANNELS 3 Zrotation Xrotation Yrotation
			JOINT LeftFoot
			{
				OFFSET 0.00000 -45.00070 0.00000
				CHANNELS 3 Zrotation Xrotation Yrotation
				JOINT LeftForeFoot
				{
					OFFSET 0.00000 -3.74824 0.00000
					CHANNELS 3 Zrotation Xrotation Yrotation
					JOINT LeftToeBase
					{
						OFFSET 0.00000 0.06325 14.43110
						CHANNELS 3 Zrotation Xrotation Yrotation
						End site
						{
							OFFSET 0.00000 0.00000 0.00000
						}
					}
				}
			}
		}
	}
}
MOTION
Frames: 4
Frame Time: 0.050000
0.012189298299959128 -0.03732590226365655 0.0014219266847828975 0.01996077397074739 0.01821269910328855 -0.04652657836381533 -2.7418857813301503 0.4997412082613403 -0.7665113380868039 -1.0436927499812125 3.5560714785618996 0.30647938812841397 -0.926283102625595 -1.9978859259748991 -2.5884580706951015 -0.8469968751107544 0.32780085915630364 -1.0030654043668112 -2.247250927169535 12.31118430840071 6.018883364075508 -0.12068411685182087 0.0805781195126749 13.4487972741753 -1.9129646746009146 -14.603159251510194 1.1075103857024855 -2.73477436056794 1.4728542339360309 -13.500139568943387 69.8994201319546 28.892520687936813 0.252695962764929 8.158806460202928 -0.9671371444600331 84.40692229271554 17.88056797353849 -0.4765350548816169 -3.9471919639853947 4.50839169801562 -0.07731513567743331 -1.6180153967507394 0.03730015985081495 -0.0304183332363305 -56.2513568387374 0.035237259877146244 -0.03697675780801208 -56.258727823579974 -38.74588536686635 0.040293054921238615 0.0005478291975186807 -0.02871952437961458 -0.0015009282243051523 -0.008627161444078251 -0.027976559139185314 -0.04820255059781335 0.021377917111844672 -36.666348091571315 0.023835026350462987 0.016768539853948078 -0.0026240530883039465 0.01902896571094561 -0.024010254181824394 0.03895180599495546 0.021949625682348917 0.025492228319626536 -19.710183178334773 -0.0294939162420301 0.04996267837724777 -0.011601845953142884 0.0038060799901971695 -0.010993518629202352 -0.017828775425106237 -0.03277790981498916 -0.027147783296143008 24.094688218750445 0.028569580146130383 0.0395418110479717 28.868254867937928 -0.022217856940073406 -0.022328243125632988 28.824589910338783 -0.03750755355415956 -0.0057126627623943155 9.794745403726699 2.123230700574336 12.367405610549552 -69.0851578962278 15.808430974024617 -23.074751917957858 -20.419186400740735 -12.36064727073573 -77.70553344638184 -5.961583574792392 -2.9558339793718873 0.2271235756352517 -0.4847027192075577 0.061554506250501184 -8.158214944667083 -0.012125895273483745 0.028043025292146993 44.6063723303777 -0.005046762231810298 0.006604553197966183 44.58761328632017 12.489205630760448 0.04902228342064468 0.0046814548891694245 -0.01493861766899198 -0.0017699357624035494 0.026798191306693853 -0.03859046076464513 0.02259783032523347 0.018122255527214373 11.127643203868507 -0.0402214295475262 0.012787550143868058 -0.006802489437075881 0.023360374880183894 -0.044360022062486335 0.026057143139082667 0.034599255841923186 -0.03494293461912171 4.764313289997905 -0.006303820575706013 0.0008512334936082666 -0.009123579314733538 -0.0394559482673267 -0.042289094357301285 -0.044151379598388454 0.024653098655370003 -0.006305992238681502 -5.594918387167469 0.04547953475135652 0.005767795995076688 -6.70805138464863 -0.020199549941505156 -0.023810734630469222 -6.717935965306285 0.014330742813668666 0.0031457895905745528 -0.010743034607025755 -0.04256709556641771 0.03104584848218673 8.05087827710179 3.5033811365547507 -19.221925485710063 -0.04349729857321105 10.37509284068371 -0.012242988533166566 -5.634041616463003 -15.669952080807533 3.2163377525160772 0.017618892773984835 0.0033421724747640866 -0.014493360229968322 0.03297715113217527 4.707126947280087 0.00011658871653779916 12.463445754120054 -8.267257498818598 6.857933670616513 -0.0019383852026533975 46.39955119456586 -0.02037364632853932 -4.328589727892378 -14.766736598585451 -3.8463661064088854 0.014019846428675833 0.02507317797653449 0.03704790297772706 0.02952593061991614 -10.749005904467966 -0.001330507861781228 
0.004269869579237108 -0.013501181130295145 -0.03540840276023873 0.023658206308489464 0.04762809892465658 -0.004550914869263367 -2.7597155441331727 0.5488456433440244 -0.7694468303170219 -0.9539287667327068 3.507930713137491 0.3282176840880433 -0.8883397969796383 -2.035170537376342 -2.695562613458756 -0.7882024193080972 0.26822664282336245 -0.9969019323631991 -2.2616110354478502 12.307214794832618 5.879898811081327 -0.10677436317650323 0.10971629353377879 13.28035878405061 -1.9536172967182477 -14.584685991529794 1.1584710939529292 -2.810736159866111 1.432271715233958 -13.342157913945677 69.81429709685185 28.37448531507424 0.7345787517558396 8.95846648296473 -0.5716870847652007 83.41431221163346 18.114901645534083 -0.44443918334046917 -4.070317143652225 4.537074533583974 -0.09129717489646968 -1.6010386660817977 0.007150283759346826 0.008098120645741528 -56.23885084849493 0.022541964059641092 0.007504774579830937 -56.21498666817391 -38.75283651213304 -0.024171920852378015 0.0062391109648335255 0.005127418222202285 0.04791690566145515 -0.0019121068335217427 0.039571640432626475 0.021128655410561564 -0.018750904748195248 -36.7068056158642 0.04892046315823585 0.022024517288820756 0.022725919297925685 0.024876992964650516 -0.01785665028747053 -0.006806372780881716 0.022631404662753124 0.04569139951016283 -19.729585566514476 -0.02130578629419075 -0.013678694447018424 -0.04991145077755878 -0.04494820110127033 -0.013510994550367483 0.03852380452728671 -0.03927530457091336 0.02064165744669958 24.02637901628182 -0.02213905711431124 -0.015303043695002712 28.870425333852427 -0.011752022283145078 0.04578645795566836 28.820518529432526 -0.021316824037388535 -0.002931323023062084 9.968493871561666 2.117338398871395 12.157070829195462 -68.22086817641105 15.518484477705162 -24.629748104739917 -17.174331957903036 -13.23925628895729 -76.94525453200455 -5.767147693294113 -2.835740241936241 0.534515221278246 -0.46572905111087604 0.08598117994760422 -8.076762939597845 0.027038753198350196 0.019110682907524403 44.56972088894729 0.027384963390645656 -0.0007587512428347754 44.55213594435203 12.486167195860732 0.022431897740553736 0.012317981989335381 -0.01304220479220209 -0.029851366504802666 0.030956406363568476 0.018527358771225497 -0.020093438621773062 0.04130012871061682 11.113864686071024 0.03396367753790392 0.04995020013157923 -0.04502128712075375 -0.00033204269295383657 0.015992015527117064 0.01499334652382854 0.019225556738493296 -0.022362391312996926 4.7872938511482825 -0.012207926827348775 0.020038308175594717 -0.008036036913564408 -0.021211265824102727 0.019760006763760333 0.03422818410935388 0.038390607867596224 -0.025327264837850624 -5.622884070426272 0.021111226015560498 -0.00373498482240387 -6.740640686181623 -0.04812458461234088 0.0199721094177033 -6.759396069869393 0.0033278886769014843 0.015828477977669952 0.00388422928611449 0.029030393696029617 0.02333294282994686 8.014229297076136 3.484098999941902 -19.19456789256328 -0.006334405808481115 10.395529404170341 -0.008252454128455794 -5.601685949011566 -15.669494539622676 3.223690185109043 -0.03554213191285584 0.007836917479673543 7.411129911111262e-05 -0.024866247470546627 4.727084734541444 0.010813063243692227 12.489638129697182 -8.263924600898553 6.905477330823474 -0.015576201784904263 46.40970731895221 -0.04184814976117662 -4.334700509942585 -14.767623072360594 -3.835918014388622 -0.01863527597490097 -0.020476813885444384 0.03316899867630503 0.027569221394217643 -10.735646364091549 0.0301018076060707 
-0.01097267285045052 0.037226802637694095 0.004175145840295102 -0.02356492216067064 -0.036572729912796136 -0.0281683764128524 -2.7108756368126152 0.5715343069648079 -0.7895830528995114 -0.9774075709128581 3.46522001067001 0.38075616347450386 -0.8453450007275237 -2.045425613210103 -2.923919146256009 -0.6818694795015927 0.28308700724570846 -1.031851965662655 -2.230224298471813 12.246754265868407 5.7464024590161555 -0.1387685374784084 0.054184932478213904 12.959795159385084 -1.8757794171553912 -14.647939036771122 1.1392479578785817 -2.819511889646163 1.457505498144278 -13.248304471773457 69.56530788843259 27.996317889084896 1.4300756501316771 10.808307987031187 -0.1651441052494616 83.0740021727985 18.563109085680747 -0.40702156869489575 -4.33108806283959 4.566634025360215 -0.1186727458989566 -1.5763773348928405 0.048969486968489094 0.005449954883425937 -56.214100692866104 -0.038237667039615314 0.008219067997436342 -56.20944739004359 -38.789640196853554 0.025177914252375092 -0.018169021295548177 0.0050509829439184155 0.010132161811629656 -0.04500795228074285 0.0018135054628171375 0.019339635760880502 -0.017140994990660168 -36.68265358006708 0.04112133400131336 0.036063397445186975 0.0017326604327612914 -0.041022966904771106 0.031206183987255918 -0.004779253682004257 0.03920518929567983 -0.015328941244698711 -19.742060276165706 -0.026573502863108313 0.04415779174140906 0.010388190015654816 -0.012730348136993159 -0.012486985396826845 -0.035306545126553526 0.0041537125676540994 -0.007742489181995616 24.041778789326674 0.022228623432328284 0.013745374560618952 28.84279972890193 0.02626350017937923 0.0012193992302852162 28.85949911343181 -0.038230194215518744 -0.02720256894750208 10.11306699451559 2.1705235084543117 11.946653518772514 -67.27800943897923 15.370256460061308 -26.27802366614419 -15.624762632313066 -13.720223698470054 -75.83317240245549 -6.332783371113855 -2.8447906554206335 1.0774558268805052 -0.4833994625279993 0.043071974546851785 -8.160997691913527 0.0025309695669834113 0.04554739824024974 44.53332799874941 0.02812695116540687 0.003264967814305947 44.54283389343755 12.489442080913571 0.01891437431492318 0.021405112901557208 -0.029740444292122456 0.009890388602487586 -0.0017412028872294005 0.0010494687255440443 -0.00936137586299409 -0.016597910238311406 11.110309798230338 -0.04656111571142379 -0.013668091378929445 0.013736754071778198 0.03236931804769 0.014705316529022903 0.04423072439907897 0.0230713446145531 -0.02905095744841332 4.79062319194363 0.02596922401641618 0.01887530082023782 0.013175964688464499 0.015350719179542989 -0.00177599779022272 -0.0022279194132531098 -0.010215617299126897 -0.04559041010939371 -5.561693534006456 -0.009926567756710086 0.022710552274838928 -6.767996590547752 0.04376341108686057 -0.017743039024727313 -6.671091498151961 -0.003495082871581587 0.0174163219818125 -0.0128683694393621 0.006740947838763544 0.030898989983336272 8.071306725383872 3.4556192741668252 -19.216679970653768 0.013982399082044227 10.404048769675631 0.004615508511898996 -5.612378367694612 -15.638230878812875 3.1592672846252863 -0.03618995782423986 0.045500920528874826 0.04966119424494683 0.002607407246836117 4.720490337974705 0.001665188707747825 12.446825652404616 -8.273054883246205 6.920239430556099 0.03880329365412657 46.37634894473816 -0.016875354152112953 -4.354594881668615 -14.724255847052284 -3.804540370719776 0.004724842955955255 -0.0023890902694738885 0.048501357307001385 0.006126741302156394 -10.794210409133822 -0.04434389416847185 
0.013987800736855072 -0.03959803387246638 -0.02109275486707302 -0.020541868940364975 -0.022928219946379363 0.001211795305529259 -2.636454267840153 0.7048604387213226 -0.7593441704846794 -0.9741421698948038 3.516183169488627 0.3605691793547353 -0.8675436110407154 -2.0032479085082056 -3.0476192193375793 -0.6252012728741462 0.357974648404467 -1.0383797175959046 -2.2392825928492854 12.163798291496157 5.571300998062556 -0.17813885176627886 0.04130905483681231 12.621791683378046 -1.8663015094368738 -14.753097056771315 1.1164146638517112 -2.9295532944404497 1.449586018991656 -13.079239142011474 69.34763231806316 27.452051440827454 1.9847916982019587 11.838095884973816 0.11927534943828652 81.8093994402604 18.918712703947925 -0.370691608834634 -4.4812309063603575 4.527872730771968 -0.12845686644863766 -1.6159719158175587 -0.015627938745716392 0.0271285063556859 -56.19847598883065 -0.017408381833197793 0.021942296464311672 -56.22708604390783 -38.79320769304775 -0.004457128742132524 0.032868029690783285 -0.017746187260072287 0.01599559106635902 0.03456555777607703 -0.03032258450455779 0.013594297415757189 -0.03316462430698217 -36.65244187825426 0.022258136499981054 -0.03550961192280689 -0.0036626725453503327 -0.019292820922077784 -0.010909962244559198 0.00206395517633727 0.004982783751501533 -0.04680002504377605 -19.730883902670964 0.021127613969699845 0.01740740763066938 -0.038812756949252174 0.03293260797442009 -0.008660870211197635 -0.012947896441258986 -0.023645896655796403 0.03069729965012932 24.081651517216205 0.003992435059707973 -0.038560381042705996 28.851293956198774 -0.027127991412768806 0.02089365115907751 28.87174645985482 0.014842848089264274 -0.011034992669986154 10.180705757489038 2.171301361638665 11.72701503692204 -66.29125682093499 15.336955926307466 -27.437364717958705 -13.900867457942418 -14.215898201888098 -73.78849664140137 -6.8500820044148725 -2.968562064540133 1.8809217962486573 -0.49397906499280114 0.08489721223174765 -8.134971131008346 -0.000984554849903031 -0.011021722028878588 44.58652862676494 -0.03209310455269328 -0.024851421760829235 44.56354598954167 12.431608996185911 -0.0012116704880536788 0.024462558606197168 0.018049193645403146 -0.03851783510509085 0.020085693665250405 -0.03435785680886048 0.023324972854192397 -0.007128110645201379 11.125298591333264 0.04976560025970467 -0.039482331951325826 0.043411609312505525 -0.015757725476907142 0.01649748235416873 -0.02436988212595306 0.016002741935690432 -0.02891495923172996 4.772809676580449 -0.022382270513774647 0.03463010405232924 -0.01337480291649395 -0.012866487513277508 0.0485462405379342 0.0184637833189621 0.019010474302728838 0.016320529871532968 -5.635935556951759 0.02023153087500703 -0.023010112996690625 -6.756772336916986 0.006525583459691575 -0.035606013650144305 -6.680098133144563 0.03764988371078994 -0.012370775082682904 -0.0034319164486663785 0.02623923883562537 -0.02597607070223746 8.024552662238145 3.4545064893851145 -19.180178935877812 -0.010648608270746358 10.408973354373618 -0.015940626926678626 -5.635472908892583 -15.652002651726818 3.1863370224949294 -0.0454928958207201 -0.02101756740600364 -0.03894218174975056 0.046370545762130684 4.725960608949584 -0.031795913320811595 12.470166415784885 -8.261046996520104 6.881063929187554 0.005389718643426377 46.41995186709931 0.008137174167899741 -4.280350687486281 -14.781079590148515 -3.8706490378235525 0.036179679221475906 -0.0216228076027915 0.01058768439651084 -0.048752288113994915 -10.793164927090679 0.026388898377559235 
